<svg width="12" height="11" viewBox="0 0 12 11" fill="none" xmlns="http://www.w3.org/2000/svg">
<path d="M4.59993 10.6C5.04175 10.6 5.39993 10.2418 5.39993 9.8C5.39993 9.35817 5.04175 9 4.59993 9C4.1581 9 3.79993 9.35817 3.79993 9.8C3.79993 10.2418 4.1581 10.6 4.59993 10.6Z" fill="white"/>
<path d="M10.2 10.6C10.6419 10.6 11 10.2418 11 9.8C11 9.35817 10.6419 9 10.2 9C9.7582 9 9.40002 9.35817 9.40002 9.8C9.40002 10.2418 9.7582 10.6 10.2 10.6Z" fill="white"/>
<path d="M11.6578 1.69441C11.5993 1.62205 11.5256 1.56377 11.442 1.52381C11.3584 1.48384 11.2671 1.46319 11.1747 1.46335H3.25224L3.09267 0.54809C3.07566 0.450598 3.0252 0.362283 2.95018 0.29866C2.87515 0.235037 2.78035 0.200175 2.68243 0.200195H1.01647C0.906006 0.200195 0.80007 0.244556 0.721963 0.323519C0.643856 0.402482 0.599976 0.509578 0.599976 0.621248C0.599976 0.732918 0.643856 0.840014 0.721963 0.918977C0.80007 0.99794 0.906006 1.0423 1.01647 1.0423H2.3331L3.52166 7.8523C3.53867 7.94979 3.58912 8.03811 3.66415 8.10173C3.73917 8.16535 3.83397 8.20022 3.9319 8.2002H10.5957C10.7062 8.2002 10.8121 8.15583 10.8902 8.07687C10.9684 7.99791 11.0122 7.89081 11.0122 7.77914C11.0122 7.66747 10.9684 7.56038 10.8902 7.48141C10.8121 7.40245 10.7062 7.35809 10.5957 7.35809H4.28123L4.13442 6.51598H10.425C10.5694 6.5158 10.7094 6.46517 10.8211 6.37267C10.9329 6.28016 11.0096 6.15146 11.0383 6.00835L11.7879 2.21888C11.806 2.12717 11.8037 2.03255 11.7812 1.94185C11.7587 1.85115 11.7165 1.76663 11.6578 1.69441Z" fill="white"/>
</svg>
