<svg width="10" height="13" viewBox="0 0 10 13" fill="none" xmlns="http://www.w3.org/2000/svg">
<path d="M1.25 13C0.90625 13 0.612083 12.8789 0.3675 12.6366C0.1225 12.394 0 12.1024 0 11.7619V5.57143C0 5.23095 0.1225 4.93938 0.3675 4.69671C0.612083 4.45446 0.90625 4.33333 1.25 4.33333H1.875V3.09524C1.875 2.23889 2.17979 1.50883 2.78938 0.905048C3.39854 0.301683 4.13542 0 5 0C5.86458 0 6.60167 0.301683 7.21125 0.905048C7.82042 1.50883 8.125 2.23889 8.125 3.09524V4.33333H8.75C9.09375 4.33333 9.38813 4.45446 9.63313 4.69671C9.87771 4.93938 10 5.23095 10 5.57143V11.7619C10 12.1024 9.87771 12.394 9.63313 12.6366C9.38813 12.8789 9.09375 13 8.75 13H1.25ZM5 9.90476C5.34375 9.90476 5.63813 9.78363 5.88313 9.54138C6.12771 9.29871 6.25 9.00714 6.25 8.66667C6.25 8.32619 6.12771 8.03462 5.88313 7.79195C5.63813 7.5497 5.34375 7.42857 5 7.42857C4.65625 7.42857 4.36208 7.5497 4.1175 7.79195C3.8725 8.03462 3.75 8.32619 3.75 8.66667C3.75 9.00714 3.8725 9.29871 4.1175 9.54138C4.36208 9.78363 4.65625 9.90476 5 9.90476ZM3.125 4.33333H6.875V3.09524C6.875 2.57937 6.69271 2.14087 6.32813 1.77976C5.96354 1.41865 5.52083 1.2381 5 1.2381C4.47917 1.2381 4.03646 1.41865 3.67188 1.77976C3.30729 2.14087 3.125 2.57937 3.125 3.09524V4.33333Z" fill="url(#paint0_radial_0_367)"/>
<defs>
<radialGradient id="paint0_radial_0_367" cx="0" cy="0" r="1" gradientUnits="userSpaceOnUse" gradientTransform="translate(5 6.5) rotate(90) scale(13 10)">
<stop stop-color="#EE5B5B"/>
<stop offset="1" stop-color="#651616"/>
</radialGradient>
</defs>
</svg>
