<svg width="10" height="14" viewBox="0 0 10 14" fill="none" xmlns="http://www.w3.org/2000/svg">
<path d="M1.36752 0H7.52137C7.88406 0 8.23189 0.1475 8.48835 0.41005C8.74481 0.672601 8.88889 1.0287 8.88889 1.4V2.8H7.52137V1.4H1.36752V12.6H7.52137V11.2H8.88889V12.6C8.88889 12.9713 8.74481 13.3274 8.48835 13.5899C8.23189 13.8525 7.88406 14 7.52137 14H1.36752C1.00483 14 0.656998 13.8525 0.400538 13.5899C0.144078 13.3274 0 12.9713 0 12.6V1.4C0 1.0287 0.144078 0.672601 0.400538 0.41005C0.656998 0.1475 1.00483 0 1.36752 0Z" fill="white"/>
<path d="M5.77915 9.154L6.70755 10L9.99973 7L6.70755 4L5.77915 4.846L7.47792 6.4H1.11084V7.6H7.47792L5.77915 9.154Z" fill="white"/>
</svg>
