<svg width="13" height="9" viewBox="0 0 13 9" fill="none" xmlns="http://www.w3.org/2000/svg">
<path fill-rule="evenodd" clip-rule="evenodd" d="M6.50036 1.80637C8.38655 1.80645 10.2006 2.4818 11.5676 3.69286C11.6705 3.78635 11.8351 3.78517 11.9365 3.69021L12.9205 2.76481C12.9718 2.71665 13.0004 2.65141 13 2.58353C12.9996 2.51564 12.9701 2.45072 12.9182 2.40312C9.33026 -0.801039 3.66988 -0.801039 0.0819481 2.40312C0.0299744 2.45068 0.00048519 2.51559 5.9336e-06 2.58347C-0.000473323 2.65135 0.0280969 2.71662 0.0793945 2.76481L1.06368 3.69021C1.165 3.78532 1.32966 3.7865 1.43253 3.69286C2.79971 2.48172 4.61398 1.80636 6.50036 1.80637ZM6.50037 4.81708C7.53671 4.81702 8.53606 5.17597 9.30425 5.82418C9.40816 5.91617 9.57183 5.91418 9.67311 5.81968L10.656 4.89429C10.7077 4.84575 10.7365 4.7799 10.7357 4.71147C10.735 4.64305 10.7048 4.57776 10.652 4.53021C8.31271 2.50249 4.69001 2.50249 2.35072 4.53021C2.29788 4.57776 2.26773 4.64308 2.26704 4.71153C2.26634 4.77997 2.29516 4.84582 2.34703 4.89429L3.32961 5.81968C3.4309 5.91418 3.59457 5.91617 3.69847 5.82418C4.46615 5.1764 5.46472 4.81748 6.50037 4.81708ZM8.46931 6.84294C8.47082 6.91156 8.44187 6.97771 8.38931 7.02579L6.68916 8.62461C6.63932 8.6716 6.57137 8.69804 6.50047 8.69804C6.42957 8.69804 6.36162 8.6716 6.31179 8.62461L4.61135 7.02579C4.55882 6.97768 4.52993 6.9115 4.53148 6.84289C4.53304 6.77427 4.56492 6.70929 4.61958 6.6633C5.70536 5.80753 7.29558 5.80753 8.38136 6.6633C8.43599 6.70933 8.46781 6.77433 8.46931 6.84294Z" fill="white"/>
</svg>
