<svg width="28" height="37" viewBox="0 0 28 37" fill="none" xmlns="http://www.w3.org/2000/svg">
<path d="M3.5 37C2.5375 37 1.71383 36.6553 1.029 35.9658C0.343 35.2751 0 34.4452 0 33.4762V15.8571C0 14.8881 0.343 14.0582 1.029 13.3676C1.71383 12.6781 2.5375 12.3333 3.5 12.3333H5.25V8.80952C5.25 6.37222 6.10342 4.29435 7.81025 2.5759C9.51592 0.858635 11.5792 0 14 0C16.4208 0 18.4847 0.858635 20.1915 2.5759C21.8972 4.29435 22.75 6.37222 22.75 8.80952V12.3333H24.5C25.4625 12.3333 26.2868 12.6781 26.9727 13.3676C27.6576 14.0582 28 14.8881 28 15.8571V33.4762C28 34.4452 27.6576 35.2751 26.9727 35.9658C26.2868 36.6553 25.4625 37 24.5 37H3.5ZM14 28.1905C14.9625 28.1905 15.7867 27.8457 16.4727 27.1562C17.1576 26.4656 17.5 25.6357 17.5 24.6667C17.5 23.6976 17.1576 22.8678 16.4727 22.1771C15.7867 21.4876 14.9625 21.1429 14 21.1429C13.0375 21.1429 12.2138 21.4876 11.529 22.1771C10.843 22.8678 10.5 23.6976 10.5 24.6667C10.5 25.6357 10.843 26.4656 11.529 27.1562C12.2138 27.8457 13.0375 28.1905 14 28.1905ZM8.75 12.3333H19.25V8.80952C19.25 7.34127 18.7396 6.09325 17.7188 5.06548C16.6979 4.0377 15.4583 3.52381 14 3.52381C12.5417 3.52381 11.3021 4.0377 10.2812 5.06548C9.26042 6.09325 8.75 7.34127 8.75 8.80952V12.3333Z" fill="url(#paint0_radial_0_1358)"/>
<defs>
<radialGradient id="paint0_radial_0_1358" cx="0" cy="0" r="1" gradientUnits="userSpaceOnUse" gradientTransform="translate(14 18.5) rotate(90) scale(37 28)">
<stop stop-color="#EE5B5B"/>
<stop offset="1" stop-color="#651616"/>
</radialGradient>
</defs>
</svg>
